#!OML:ASF E:\VariousWalksJay\Project 1\Capture day 1\Session 1\Actor2.ASF
:FULLY-SPECIFIED
:DEGREES
856
root -5.41773 17.0299 38.0675 6.73061 -17.3123 -3.98197
lowerback 0.838062 -0.649609 6.30456
upperback 7.28526 -1.27743 2.65559
thorax 7.09592 -0.360428 -0.806187
lowerneck -7.39086 -1.92511 -0.649041
upperneck 14.5041 -3.51403 6.2788
head 5.71986 -1.31513 1.82717
rclavicle 4.39314e-014 -1.59028e-015
rhumerus -45.861 66.6519 -87.8488
rradius 53.2283
rwrist -12.5914
rhand -0.616682 -9.15732
rfingers 7.12502
rthumb 24.9996 -37.5416
lclavicle 4.39314e-014 -1.59028e-015
lhumerus -69.5347 -71.23 107.033
lradius 64.3478
lwrist 18.0829
lhand -5.80275 -7.89212
lfingers 7.12502
lthumb 20.022 21.0963
rfemur -28.3469 -2.29608 22.0973
rtibia 43.3862
rfoot -23.9222 -11.0529
rtoes -19.3705
lfemur -24.6321 1.20979 -19.3162
ltibia 30.9352
lfoot -7.32262 1.23461
ltoes -5.07097
857
root -5.39399 17.0385 38.0401 7.20187 -17.5881 -3.73752
lowerback 1.44739 -0.668155 6.23917
upperback 7.77098 -1.27765 2.582
thorax 7.2699 -0.353183 -0.837543
lowerneck -7.32169 -1.91423 -0.517354
upperneck 14.0152 -3.469 6.18803
head 5.55021 -1.30407 1.7796
rclavicle 1.11319e-014 -1.43125e-014
rhumerus -48.4382 67.7185 -88.7116
rradius 52.4393
rwrist -12.1387
rhand 2.65296 -9.78333
rfingers 7.12502
rthumb 28.1289 -37.6936
lclavicle 1.11319e-014 -1.43125e-014
lhumerus -74.325 -73.0882 110.192
lradius 64.5127
lwrist 17.9411
lhand -4.23162 -7.54799
lfingers 7.12502
lthumb 21.5315 21.2752
rfemur -29.6234 -2.17162 21.838
rtibia 43.3292
rfoot -22.481 -10.7813
rtoes -18.1833
lfemur -25.324 1.55222 -19.6743
ltibia 30.871
lfoot -6.99615 1.12051
ltoes -5.22153
858
root -5.3706 17.0441 38.0119 7.65895 -17.8189 -3.44388
lowerback 2.05645 -0.682169 6.16922
upperback 8.26036 -1.27061 2.47268
thorax 7.44967 -0.341309 -0.903592
lowerneck -7.25459 -1.91786 -0.357972
upperneck 13.4766 -3.44406 6.09469
head 5.36642 -1.30267 1.72549
rclavicle -4.37326e-014 3.33958e-014
rhumerus -51.4362 68.7107 -90.0312
rradius 51.7617
rwrist -11.598
rhand 5.81276 -10.326
rfingers 7.12502
rthumb 31.1449 -37.6997
lclavicle -4.37326e-014 3.33958e-014
lhumerus -80.2814 -74.81 114.473
lradius 64.5957
lwrist 17.7774
lhand -2.67292 -7.22841
lfingers 7.12502
lthumb 23.0278 21.4159
rfemur -30.848 -2.09871 21.523
rtibia 43.3197
rfoot -20.8301 -10.4286
rtoes -17.1135
lfemur -26.0174 1.88044 -20.0848
ltibia 30.796
lfoot -6.70105 0.930531
ltoes -5.32153
859
root -5.34814 17.0458 37.9826 8.11633 -18.0236 -3.14032
lowerback 2.67366 -0.681168 6.12053
upperback 8.74714 -1.24258 2.34061
thorax 7.62494 -0.316992 -1.00467
lowerneck -7.19969 -1.93515 -0.162154
upperneck 12.9004 -3.43938 5.99448
head 5.17382 -1.31069 1.6622
rclavicle 4.65156e-014 -3.97569e-014
rhumerus -54.94 69.5999 -91.8933
rradius 51.187
rwrist -11.0334
rhand 8.74521 -10.7676
rfingers 7.12502
rthumb 33.9353 -37.5657
lclavicle 4.65156e-014 -3.97569e-014
lhumerus -87.6665 -76.3279 120.167
lradius 64.5872
lwrist 17.5449
lhand -1.15521 -6.93735
lfingers 7.12502
lthumb 24.4834 21.5178
rfemur -32.0298 -2.04217 21.1987
rtibia 43.3487
rfoot -19.0141 -9.96037
rtoes -16.1297
lfemur -26.7256 2.18992 -20.4982
ltibia 30.731
lfoot -6.45752 0.68537
ltoes -5.32553
860
root -5.32638 17.0425 37.9521 8.58928 -18.204 -2.83939
lowerback 3.29408 -0.667747 6.09491
upperback 9.22094 -1.19738 2.19922
thorax 7.78761 -0.282596 -1.12829
lowerneck -7.16286 -1.96514 0.0593905
upperneck 12.3012 -3.45303 5.88496
head 4.97785 -1.32766 1.59104
rclavicle 5.24792e-014 -1.51076e-014
rhumerus -58.9769 70.3557 -94.3215
rradius 50.7061
rwrist -10.4774
rhand 11.4055 -11.1173
rfingers 7.12502
rthumb 36.4582 -37.3199
lclavicle 5.24792e-014 -1.51076e-014
lhumerus -96.6032 -77.5413 127.429
lradius 64.4833
lwrist 17.2173
lhand 0.320422 -6.67734
lfingers 7.12502
lthumb 25.8972 21.579
rfemur -33.1843 -1.99687 20.8809
rtibia 43.4121
rfoot -17.1156 -9.37835
rtoes -15.2647
lfemur -27.4725 2.47556 -20.9026
ltibia 30.6984
lfoot -6.27857 0.398144
ltoes -5.25838
